<svg width="23" height="23" viewBox="0 0 23 23" fill="none" xmlns="http://www.w3.org/2000/svg">
<path d="M22.0667 16.1063L19.322 4.32933C19.3041 4.25462 19.2677 4.18564 19.216 4.12879C19.1644 4.07194 19.0993 4.02905 19.0267 4.0041L7.13096 0.0232439C7.04914 -0.00697856 6.95936 -0.00775122 6.87703 0.0210567C6.79469 0.0498647 6.72494 0.106459 6.67973 0.181131L2.88556 6.67752C2.85548 6.73127 2.83818 6.79124 2.83501 6.85278C2.83183 6.91431 2.84287 6.97575 2.86725 7.03232L4.95924 12.0906C4.99204 12.164 5.00136 12.2459 4.98593 12.3248C4.97049 12.4038 4.93105 12.4761 4.87301 12.5317L0.118488 16.8662C-0.133708 17.0986 0.0434781 17.5527 0.397852 17.5858L2.38235 17.7692C2.49469 17.7805 2.59844 17.8345 2.67235 17.9199L3.87131 19.2865C3.9411 19.3648 3.98068 19.4655 3.98294 19.5704L4.00893 21.6022C4.01365 21.9647 4.4519 22.177 4.7035 21.9392L9.45094 17.4492C9.51077 17.3951 9.58592 17.3609 9.66602 17.3513C9.74611 17.3418 9.82719 17.3574 9.89804 17.396L14.6685 19.8205C14.7229 19.849 14.7831 19.8647 14.8445 19.8664C14.9059 19.8682 14.9669 19.8559 15.0229 19.8305L21.87 16.5404C21.948 16.5021 22.0102 16.4378 22.0461 16.3587C22.082 16.2795 22.0892 16.1903 22.0667 16.1063ZM7.04532 11.4904C7.61409 11.1397 8.80893 10.4076 8.91938 10.3745C9.00324 10.3497 9.74625 10.4171 10.3587 10.478C10.4311 10.4853 10.4997 10.5133 10.5565 10.5587C10.6133 10.6041 10.6558 10.665 10.6789 10.734C10.702 10.803 10.7047 10.8772 10.6867 10.9477C10.6686 11.0182 10.6306 11.082 10.5773 11.1314L8.1616 13.3673C8.11891 13.4065 8.06778 13.4354 8.01215 13.4517C7.95653 13.468 7.89791 13.4713 7.84082 13.4613C7.78373 13.4513 7.7297 13.4283 7.68291 13.394C7.63612 13.3598 7.59783 13.3152 7.57098 13.2638L6.90948 11.9859C6.86526 11.9014 6.85469 11.8033 6.8799 11.7114C6.90511 11.6194 6.96423 11.5404 7.04532 11.4904ZM9.34344 17.2263C9.32604 17.2662 9.30025 17.3019 9.26784 17.331L4.97637 21.1847C4.93256 21.2239 4.8784 21.2497 4.82035 21.259C4.7623 21.2683 4.7028 21.2607 4.64896 21.2371C4.59512 21.2135 4.54919 21.1748 4.51666 21.1258C4.48413 21.0768 4.46636 21.0194 4.46548 20.9606L4.44244 19.4231C4.44107 19.3419 4.40775 19.2646 4.34972 19.2079L3.86363 18.7348C3.83438 18.7063 3.81113 18.6721 3.79526 18.6345C3.77938 18.5968 3.7712 18.5563 3.7712 18.5154C3.7712 18.4745 3.77938 18.434 3.79526 18.3964C3.81113 18.3587 3.83438 18.3246 3.86363 18.296C4.91672 17.2636 9.41077 12.8558 11.5459 10.7672C11.5969 10.7175 11.6635 10.6871 11.7344 10.6813C11.8053 10.6754 11.876 10.6944 11.9345 10.735C11.9929 10.7756 12.0354 10.8353 12.0547 10.9039C12.074 10.9724 12.0689 11.0456 12.0402 11.1107L9.34344 17.2263ZM14.5669 9.56914L13.7341 18.1364C13.7301 18.1784 13.7161 18.2189 13.6935 18.2545C13.6708 18.2901 13.64 18.3199 13.6037 18.3413C13.5674 18.3628 13.5265 18.3753 13.4844 18.3779C13.4423 18.3805 13.4002 18.3731 13.3615 18.3563L10.3711 17.0661C10.3373 17.0514 10.3068 17.0299 10.2817 17.0029C10.2565 16.9759 10.2372 16.944 10.225 16.9092C10.2127 16.8744 10.2078 16.8374 10.2105 16.8006C10.2131 16.7638 10.2234 16.7279 10.2406 16.6953L14.0637 9.41835C14.0925 9.3632 14.1397 9.31983 14.197 9.29568C14.2543 9.27154 14.3182 9.26813 14.3777 9.28604C14.4373 9.30396 14.4887 9.34207 14.5233 9.39384C14.5578 9.44561 14.5732 9.5078 14.5669 9.56973V9.56914ZM15.7647 18.9122C15.6608 18.9639 15.5449 18.9866 15.4292 18.9779C15.3135 18.9693 15.2023 18.9296 15.1072 18.8631C15.0121 18.7965 14.9366 18.7056 14.8887 18.5998C14.8409 18.494 14.8223 18.3772 14.8351 18.2617L16.0063 7.14467C16.024 6.97894 16.1045 6.82632 16.2313 6.71832L17.4958 5.64623C17.5793 5.57521 17.6795 5.52661 17.7869 5.50501C17.8943 5.48341 18.0055 5.48951 18.1099 5.52274C18.2143 5.55597 18.3086 5.61524 18.3838 5.69498C18.4591 5.77472 18.5128 5.8723 18.54 5.97856C19.2488 8.74305 21.1819 16.2772 21.2422 16.2205C21.3024 16.1637 17.6258 17.9856 15.7647 18.9098V18.9122Z" fill="#2186EA"/>
</svg>
