<svg width="61" height="61" viewBox="0 0 61 61" fill="none" xmlns="http://www.w3.org/2000/svg">
<circle cx="30.5" cy="30.5" r="30.5" fill="#5BE586"/>
<path d="M21.2882 40.088L7.28822 34.152V30.552L21.2882 24.584V28.808L12.2802 32.36L21.2882 35.88V40.088ZM28.6617 36.104V33.128C28.6617 32.424 28.8271 31.8427 29.1577 31.384C29.4884 30.9147 29.9417 30.5253 30.5177 30.216C30.9017 30.0027 31.2751 29.7573 31.6377 29.48C32.0004 29.2027 32.2991 28.888 32.5337 28.536C32.7684 28.1733 32.8857 27.7733 32.8857 27.336C32.8857 26.7067 32.6831 26.248 32.2777 25.96C31.8831 25.672 31.3231 25.528 30.5977 25.528C30.0431 25.528 29.5737 25.656 29.1897 25.912C28.8164 26.1573 28.5124 26.4613 28.2777 26.824C28.0537 27.176 27.8884 27.512 27.7817 27.832L23.8137 26.248C23.8351 26.0987 23.9311 25.8427 24.1017 25.48C24.2831 25.1173 24.5551 24.712 24.9177 24.264C25.2804 23.816 25.7444 23.384 26.3097 22.968C26.8857 22.5413 27.5737 22.1893 28.3737 21.912C29.1844 21.6347 30.1284 21.496 31.2057 21.496C32.5177 21.496 33.6911 21.704 34.7257 22.12C35.7604 22.5253 36.5764 23.112 37.1737 23.88C37.7711 24.6373 38.0697 25.544 38.0697 26.6C38.0697 27.528 37.8511 28.328 37.4137 29C36.9764 29.672 36.4537 30.2427 35.8457 30.712C35.2484 31.1707 34.7097 31.5493 34.2297 31.848C33.6964 32.1573 33.3284 32.5147 33.1257 32.92C32.9337 33.3147 32.8377 33.832 32.8377 34.472V36.104H28.6617ZM30.8217 43.384C30.0217 43.384 29.3391 43.1013 28.7737 42.536C28.2084 41.96 27.9257 41.2773 27.9257 40.488C27.9257 39.6667 28.2084 38.9733 28.7737 38.408C29.3391 37.832 30.0217 37.544 30.8217 37.544C31.6324 37.544 32.3257 37.832 32.9017 38.408C33.4777 38.9733 33.7657 39.6667 33.7657 40.488C33.7657 41.2773 33.4777 41.96 32.9017 42.536C32.3257 43.1013 31.6324 43.384 30.8217 43.384ZM40.8665 40.088V35.88L49.8745 32.36L40.8665 28.808V24.584L54.8505 30.552V34.152L40.8665 40.088Z" fill="#DADCF7"/>
</svg>
