<svg width="60" height="60" viewBox="0 0 60 60" fill="none" xmlns="http://www.w3.org/2000/svg">
<circle cx="30" cy="30" r="30" fill="#5BE586"/>
<g clip-path="url(#clip0_289_1589)">
<path d="M31.0465 25.1163C31.0465 23.636 30.2992 22.2164 28.969 21.1697C27.6388 20.123 25.8347 19.5349 23.9535 19.5349H13.314V40.4651H25.7268C27.1376 40.4651 28.4907 40.9062 29.4884 41.6912C30.486 42.4762 31.0465 43.541 31.0465 44.6512M31.0465 25.1163V44.6512M31.0465 25.1163C31.0465 23.636 31.7938 22.2164 33.124 21.1697C34.4542 20.123 36.2584 19.5349 38.1395 19.5349H48.7791V40.4651H36.3663C34.9554 40.4651 33.6023 40.9062 32.6046 41.6912C31.607 42.4762 31.0465 43.541 31.0465 44.6512" stroke="#DADCF7" stroke-width="7" stroke-linecap="round" stroke-linejoin="round"/>
</g>
<defs>
<clipPath id="clip0_289_1589">
<rect width="42.5581" height="33.4884" fill="white" transform="translate(9.76733 15.3489)"/>
</clipPath>
</defs>
</svg>
