<svg width="80" height="60" viewBox="0 0 80 60" fill="none" xmlns="http://www.w3.org/2000/svg">
<circle cx="39" cy="30" r="30" fill="#5BE586"/>
<path d="M29.9161 39.088L15.9161 33.152V29.552L29.9161 23.584V27.808L20.9081 31.36L29.9161 34.88V39.088ZM37.2896 35.104V32.128C37.2896 31.424 37.455 30.8427 37.7856 30.384C38.1163 29.9147 38.5696 29.5253 39.1456 29.216C39.5296 29.0027 39.903 28.7573 40.2656 28.48C40.6283 28.2027 40.927 27.888 41.1616 27.536C41.3963 27.1733 41.5136 26.7733 41.5136 26.336C41.5136 25.7067 41.311 25.248 40.9056 24.96C40.511 24.672 39.951 24.528 39.2256 24.528C38.671 24.528 38.2016 24.656 37.8176 24.912C37.4443 25.1573 37.1403 25.4613 36.9056 25.824C36.6816 26.176 36.5163 26.512 36.4096 26.832L32.4416 25.248C32.463 25.0987 32.559 24.8427 32.7296 24.48C32.911 24.1173 33.183 23.712 33.5456 23.264C33.9083 22.816 34.3723 22.384 34.9376 21.968C35.5136 21.5413 36.2016 21.1893 37.0016 20.912C37.8123 20.6347 38.7563 20.496 39.8336 20.496C41.1456 20.496 42.319 20.704 43.3536 21.12C44.3883 21.5253 45.2043 22.112 45.8016 22.88C46.399 23.6373 46.6976 24.544 46.6976 25.6C46.6976 26.528 46.479 27.328 46.0416 28C45.6043 28.672 45.0816 29.2427 44.4736 29.712C43.8763 30.1707 43.3376 30.5493 42.8576 30.848C42.3243 31.1573 41.9563 31.5147 41.7536 31.92C41.5616 32.3147 41.4656 32.832 41.4656 33.472V35.104H37.2896ZM39.4496 42.384C38.6496 42.384 37.967 42.1013 37.4016 41.536C36.8363 40.96 36.5536 40.2773 36.5536 39.488C36.5536 38.6667 36.8363 37.9733 37.4016 37.408C37.967 36.832 38.6496 36.544 39.4496 36.544C40.2603 36.544 40.9536 36.832 41.5296 37.408C42.1056 37.9733 42.3936 38.6667 42.3936 39.488C42.3936 40.2773 42.1056 40.96 41.5296 41.536C40.9536 42.1013 40.2603 42.384 39.4496 42.384ZM49.4944 39.088V34.88L58.5024 31.36L49.4944 27.808V23.584L63.4784 29.552V33.152L49.4944 39.088Z" fill="#DADCF7"/>
</svg>
