<svg width="61" height="61" viewBox="0 0 61 61" fill="none" xmlns="http://www.w3.org/2000/svg">
<circle cx="30.5" cy="30.5" r="30.5" fill="#5BE586"/>
<path d="M20.1788 40.088L6.17884 34.152V30.552L20.1788 24.584V28.808L11.1708 32.36L20.1788 35.88V40.088ZM23.8883 21.88H31.5683C32.923 21.88 34.1443 22.12 35.2323 22.6C36.3203 23.0693 37.1843 23.7893 37.8243 24.76C38.475 25.72 38.8003 26.9253 38.8003 28.376C38.8003 29.816 38.475 31.0427 37.8243 32.056C37.1843 33.0587 36.3203 33.8267 35.2323 34.36C34.1443 34.8827 32.923 35.144 31.5683 35.144H28.6723V43H23.8883V21.88ZM28.6723 31.368H30.2403C30.891 31.368 31.4723 31.272 31.9843 31.08C32.507 30.888 32.923 30.584 33.2323 30.168C33.5417 29.7413 33.6963 29.1813 33.6963 28.488C33.6963 27.784 33.5417 27.2293 33.2323 26.824C32.923 26.408 32.507 26.1093 31.9843 25.928C31.4723 25.7467 30.891 25.656 30.2403 25.656H28.6723V31.368ZM41.9758 40.088V35.88L50.9838 32.36L41.9758 28.808V24.584L55.9598 30.552V34.152L41.9758 40.088Z" fill="#DADCF7"/>
</svg>
