<svg width="178" height="177" viewBox="0 0 178 177" fill="none" xmlns="http://www.w3.org/2000/svg">
<g clip-path="url(#clip0_205_1735)" filter="url(#filter0_i_205_1735)">
<path d="M64.5242 174.105L93.1067 147.716C94.4856 146.443 96.1308 145.489 97.9242 144.923C99.7175 144.358 101.614 144.194 103.479 144.446L122.931 147.062C125.039 147.35 127.185 147.106 129.173 146.353L176.735 128.363" stroke="#2186EA" stroke-width="9" stroke-miterlimit="10"/>
<path d="M2.65131 108.63L30.9348 82.5029C32.4561 81.1106 33.6141 79.3706 34.309 77.4331C35.0038 75.4956 35.2147 73.4189 34.9232 71.3822L31.8909 50.2528C31.4643 47.2958 32.1007 44.2838 33.688 41.7486L58.6303 1.88399" stroke="#2186EA" stroke-width="9" stroke-miterlimit="10"/>
<path d="M66.8929 173.428L58.9489 172.447C56.1769 172.101 53.5963 170.857 51.6049 168.906C49.6135 166.956 48.3221 164.407 47.9299 161.653C47.6774 159.9 47.7969 158.114 48.2807 156.41C48.7646 154.706 49.602 153.121 50.7388 151.759L52.1088 150.124" stroke="#2186EA" stroke-width="9" stroke-miterlimit="10"/>
<path d="M3.6073 106.144L4.13952 113.873C4.33284 116.674 5.4546 119.331 7.32878 121.429C9.20296 123.526 11.7235 124.945 14.4949 125.462L14.6691 125.495C17.785 126.076 21.0068 125.479 23.7037 123.82L26.493 122.103" stroke="#2186EA" stroke-width="9" stroke-miterlimit="10"/>
<path d="M27.0055 121.864L10.5032 136.648C9.00258 137.991 7.84453 139.671 7.12474 141.547C6.40494 143.424 6.14407 145.445 6.3637 147.442L7.19159 155.043C7.48178 157.709 8.61352 160.214 10.4241 162.198C12.2346 164.183 14.6307 165.545 17.2678 166.089L24.9062 167.659C26.8834 168.066 28.9295 167.999 30.8758 167.464C32.822 166.929 34.6125 165.941 36.0994 164.581L52.4604 149.607" stroke="#2186EA" stroke-width="9" stroke-miterlimit="10"/>
<path d="M156.931 109.526L141.664 44.3849C141.564 43.9717 141.362 43.5901 141.075 43.2757C140.787 42.9612 140.425 42.724 140.021 42.586L73.8513 20.5669C73.3961 20.3997 72.8967 20.3954 72.4388 20.5548C71.9808 20.7141 71.5928 21.0271 71.3413 21.4402L50.2362 57.3733C50.0689 57.6706 49.9727 58.0024 49.955 58.3427C49.9374 58.6831 49.9987 59.0229 50.1344 59.3358L61.7711 87.3143C61.9535 87.7206 62.0054 88.1732 61.9195 88.61C61.8337 89.0468 61.6143 89.4465 61.2914 89.7544L34.8444 113.729C33.4416 115.015 34.4271 117.527 36.3984 117.71L47.4371 118.724C48.062 118.787 48.6391 119.085 49.0502 119.558L55.7195 127.117C56.1076 127.55 56.3278 128.107 56.3404 128.687L56.485 139.925C56.5112 141.93 58.949 143.105 60.3485 141.79L86.7561 116.954C87.0889 116.655 87.507 116.466 87.9525 116.413C88.3981 116.36 88.849 116.447 89.2431 116.66L115.779 130.07C116.082 130.228 116.416 130.315 116.758 130.325C117.1 130.334 117.439 130.266 117.75 130.126L155.837 111.927C156.271 111.715 156.617 111.36 156.817 110.922C157.016 110.484 157.057 109.991 156.931 109.526ZM73.3749 83.9944C76.5387 82.0548 83.185 78.0056 83.7993 77.8224C84.2658 77.6851 88.3988 78.0579 91.8057 78.3948C92.208 78.435 92.5901 78.59 92.9061 78.8412C93.2221 79.0924 93.4584 79.4291 93.5868 79.8108C93.7152 80.1925 93.7301 80.603 93.6298 80.993C93.5295 81.383 93.3182 81.7358 93.0213 82.0091L79.5842 94.376C79.3467 94.5931 79.0623 94.7528 78.7529 94.843C78.4435 94.9331 78.1174 94.9512 77.7998 94.8959C77.4823 94.8406 77.1818 94.7133 76.9215 94.5239C76.6612 94.3345 76.4482 94.0881 76.2989 93.8036L72.6193 86.7354C72.3733 86.2682 72.3145 85.7254 72.4548 85.2167C72.595 84.708 72.9238 84.2712 73.3749 83.9944ZM86.1582 115.721C86.0614 115.942 85.918 116.14 85.7377 116.3L61.8664 137.616C61.6227 137.833 61.3214 137.976 60.9985 138.027C60.6756 138.079 60.3447 138.037 60.0451 137.906C59.7456 137.775 59.4902 137.562 59.3092 137.29C59.1283 137.019 59.0294 136.702 59.0245 136.376L58.8964 127.872C58.8888 127.423 58.7034 126.995 58.3806 126.682L55.6768 124.065C55.514 123.907 55.3847 123.719 55.2964 123.51C55.2081 123.302 55.1626 123.078 55.1626 122.852C55.1626 122.625 55.2081 122.402 55.2964 122.193C55.3847 121.985 55.514 121.796 55.6768 121.638C61.5345 115.927 86.5327 91.5468 98.4092 79.9942C98.6928 79.7195 99.0636 79.5515 99.4579 79.519C99.8523 79.4865 100.246 79.5916 100.571 79.8163C100.896 80.0409 101.132 80.3711 101.24 80.7503C101.347 81.1295 101.318 81.534 101.159 81.8946L86.1582 115.721ZM115.214 73.3676L110.581 120.755C110.559 120.988 110.481 121.212 110.355 121.409C110.229 121.606 110.058 121.77 109.856 121.889C109.654 122.007 109.426 122.077 109.192 122.091C108.958 122.106 108.724 122.065 108.508 121.972L91.8747 114.835C91.6864 114.754 91.5171 114.635 91.3771 114.486C91.2372 114.336 91.1298 114.16 91.0616 113.967C90.9935 113.775 90.966 113.57 90.981 113.367C90.9959 113.163 91.053 112.965 91.1486 112.784L112.415 72.5335C112.575 72.2285 112.837 71.9886 113.156 71.855C113.475 71.7215 113.83 71.7026 114.161 71.8017C114.493 71.9008 114.779 72.1116 114.971 72.398C115.163 72.6843 115.249 73.0283 115.214 73.3708V73.3676ZM121.876 125.046C121.298 125.332 120.654 125.458 120.01 125.41C119.367 125.362 118.748 125.143 118.219 124.775C117.69 124.407 117.27 123.903 117.004 123.318C116.738 122.733 116.634 122.087 116.705 121.449L123.22 59.9573C123.319 59.0405 123.767 58.1964 124.472 57.599L131.506 51.669C131.97 51.2762 132.527 51.0074 133.125 50.8879C133.723 50.7684 134.341 50.8021 134.922 50.986C135.502 51.1698 136.027 51.4976 136.445 51.9387C136.864 52.3797 137.163 52.9195 137.314 53.5072C141.257 68.7983 152.01 110.472 152.345 110.158C152.68 109.844 132.229 119.921 121.876 125.033V125.046Z" fill="#2186EA"/>
<mask id="path-7-inside-1_205_1735" fill="white">
<path d="M45.7681 135.968C39.4931 132.831 39.3223 145.502 37.4431 148.812C33.9967 154.876 23.8713 157.408 18.7692 152.41C29.5254 152.243 24.2393 140.373 28.2967 134.512C32.3541 128.651 41.0734 128.35 45.4232 133.963"/>
</mask>
<path d="M45.7681 135.968C39.4931 132.831 39.3223 145.502 37.4431 148.812C33.9967 154.876 23.8713 157.408 18.7692 152.41C29.5254 152.243 24.2393 140.373 28.2967 134.512C32.3541 128.651 41.0734 128.35 45.4232 133.963" fill="#2186EA"/>
<path d="M37.4431 148.812L38.3125 149.306L38.3127 149.306L37.4431 148.812ZM18.7692 152.41L18.7537 151.41L16.3573 151.447L18.0694 153.124L18.7692 152.41ZM45.7681 135.968L46.2153 135.073C45.3116 134.622 44.4373 134.414 43.5996 134.487C42.7518 134.56 42.0305 134.913 41.432 135.428C40.2843 136.416 39.5474 138.038 39.0084 139.656C38.4593 141.306 38.053 143.16 37.6809 144.738C37.2913 146.39 36.9571 147.643 36.5734 148.318L37.4431 148.812L38.3127 149.306C38.8686 148.327 39.2604 146.754 39.6275 145.197C40.0121 143.566 40.3931 141.829 40.906 140.288C41.429 138.717 42.0287 137.553 42.7367 136.944C43.0659 136.66 43.4022 136.512 43.7722 136.48C44.1522 136.447 44.6559 136.53 45.321 136.862L45.7681 135.968ZM37.4431 148.812L36.5737 148.318C35.0209 151.05 31.903 153.061 28.5189 153.781C25.1356 154.501 21.7095 153.89 19.4689 151.696L18.7692 152.41L18.0694 153.124C20.9309 155.927 25.1186 156.55 28.9352 155.737C32.7509 154.925 36.4189 152.638 38.3125 149.306L37.4431 148.812ZM18.7692 152.41L18.7847 153.41C21.6676 153.365 23.6579 152.526 24.9758 151.028C26.255 149.574 26.7627 147.648 27.035 145.738C27.1726 144.772 27.2549 143.767 27.3321 142.785C27.4102 141.793 27.4831 140.824 27.6011 139.882C27.8388 137.985 28.2456 136.343 29.1189 135.081L28.2967 134.512L27.4744 133.943C26.319 135.612 25.8651 137.651 25.6166 139.634C25.4916 140.631 25.4151 141.652 25.3383 142.629C25.2606 143.616 25.1825 144.561 25.055 145.455C24.7971 147.266 24.3559 148.705 23.4743 149.707C22.6314 150.665 21.2489 151.371 18.7537 151.41L18.7692 152.41ZM28.2967 134.512L29.1189 135.081C32.7993 129.765 40.7053 129.507 44.6327 134.575L45.4232 133.963L46.2136 133.35C41.4415 127.192 31.9089 127.537 27.4744 133.943L28.2967 134.512Z" fill="#2186EA" mask="url(#path-7-inside-1_205_1735)"/>
</g>
<defs>
<filter id="filter0_i_205_1735" x="0" y="0" width="178" height="181" filterUnits="userSpaceOnUse" color-interpolation-filters="sRGB">
<feFlood flood-opacity="0" result="BackgroundImageFix"/>
<feBlend mode="normal" in="SourceGraphic" in2="BackgroundImageFix" result="shape"/>
<feColorMatrix in="SourceAlpha" type="matrix" values="0 0 0 0 0 0 0 0 0 0 0 0 0 0 0 0 0 0 127 0" result="hardAlpha"/>
<feOffset dy="4"/>
<feGaussianBlur stdDeviation="2"/>
<feComposite in2="hardAlpha" operator="arithmetic" k2="-1" k3="1"/>
<feColorMatrix type="matrix" values="0 0 0 0 0 0 0 0 0 0 0 0 0 0 0 0 0 0 0.25 0"/>
<feBlend mode="normal" in2="shape" result="effect1_innerShadow_205_1735"/>
</filter>
<clipPath id="clip0_205_1735">
<rect width="178" height="177" fill="white"/>
</clipPath>
</defs>
</svg>
